<?xml version="1.0" encoding="UTF-8" standalone="no"?>
<svg
   viewBox="0 0 24 24"
   preserveAspectRatio="xMidYMid meet"
   focusable="false"
   class="style-scope yt-icon"
   style="pointer-events: none; display: block; width: 100%; height: 100%;"
   version="1.1"
   id="svg1409"
   sodipodi:docname="explorer.svg"
   inkscape:version="1.1 (c68e22c387, 2021-05-23)"
   xmlns:inkscape="http://www.inkscape.org/namespaces/inkscape"
   xmlns:sodipodi="http://sodipodi.sourceforge.net/DTD/sodipodi-0.dtd"
   xmlns="http://www.w3.org/2000/svg"
   xmlns:svg="http://www.w3.org/2000/svg">
  <defs
     id="defs1413" />
  <sodipodi:namedview
     id="namedview1411"
     pagecolor="#ffffff"
     bordercolor="#111111"
     borderopacity="1"
     inkscape:pageshadow="0"
     inkscape:pageopacity="0"
     inkscape:pagecheckerboard="1"
     showgrid="false"
     inkscape:zoom="34.416667"
     inkscape:cx="12"
     inkscape:cy="12"
     inkscape:window-width="2560"
     inkscape:window-height="1034"
     inkscape:window-x="-8"
     inkscape:window-y="15"
     inkscape:window-maximized="1"
     inkscape:current-layer="svg1409" />
  <g
     class="style-scope yt-icon"
     id="g1407">
    <path
       d="m 11.23,13.08 c -0.29,-0.21 -0.48,-0.51 -0.54,-0.86 -0.06,-0.35 0.02,-0.71 0.23,-0.99 0.21,-0.29 0.51,-0.48 0.86,-0.54 0.35,-0.06 0.7,0.02 0.99,0.23 0.29,0.21 0.48,0.51 0.54,0.86 0.06,0.35 -0.02,0.71 -0.23,0.99 A 1.327,1.327 0 0 1 12,13.33 c -0.28,0 -0.55,-0.08 -0.77,-0.25 z M 22,12 C 22,17.52 17.52,22 12,22 6.48,22 2,17.52 2,12 2,6.48 6.48,2 12,2 17.52,2 22,6.48 22,12 Z M 18.03,5.97 9.8,9.8 5.97,18.03 14.2,14.2 Z"
       class="style-scope yt-icon"
       fill="#606060"
       id="path1405" />
  </g>
</svg>
