<?xml version="1.0" encoding="UTF-8" standalone="no"?>
<svg
   viewBox="0 0 24 24"
   preserveAspectRatio="xMidYMid meet"
   focusable="false"
   class="style-scope yt-icon"
   style="pointer-events: none; display: block; width: 100%; height: 100%;"
   version="1.1"
   id="svg1798"
   sodipodi:docname="history.svg"
   inkscape:version="1.1 (c68e22c387, 2021-05-23)"
   xmlns:inkscape="http://www.inkscape.org/namespaces/inkscape"
   xmlns:sodipodi="http://sodipodi.sourceforge.net/DTD/sodipodi-0.dtd"
   xmlns="http://www.w3.org/2000/svg"
   xmlns:svg="http://www.w3.org/2000/svg">
  <defs
     id="defs1802" />
  <sodipodi:namedview
     id="namedview1800"
     pagecolor="#ffffff"
     bordercolor="#111111"
     borderopacity="1"
     inkscape:pageshadow="0"
     inkscape:pageopacity="0"
     inkscape:pagecheckerboard="1"
     showgrid="false"
     inkscape:zoom="34.416667"
     inkscape:cx="12"
     inkscape:cy="12"
     inkscape:window-width="2560"
     inkscape:window-height="1034"
     inkscape:window-x="-8"
     inkscape:window-y="15"
     inkscape:window-maximized="1"
     inkscape:current-layer="svg1798" />
  <g
     class="style-scope yt-icon"
     id="g1796">
    <path
       d="M 11.9,3.75 C 7.35,3.75 3.67,7.45 3.67,12 H 0.92 L 4.49,15.57 4.53,15.7 8.23,12 H 5.5 c 0,-3.54 2.87,-6.42 6.42,-6.42 3.54,0 6.4,2.88 6.4,6.42 0,3.54 -2.86,6.42 -6.4,6.42 -1.78,0 -3.38,-0.73 -4.54,-1.9 l -1.3,1.3 c 1.5,1.5 3.55,2.43 5.83,2.43 4.58,0 8.28,-3.7 8.28,-8.25 0,-4.56 -3.7,-8.25 -8.26,-8.25 z M 11,8.33 v 4.6 l 3.92,2.3 0.66,-1.1 -3.2,-1.9 v -3.9 z"
       class="style-scope yt-icon"
       fill="#606060"
       id="path1794" />
  </g>
</svg>
