<?xml version="1.0" encoding="UTF-8" standalone="no"?><!-- Generator: Gravit.io --><svg xmlns="http://www.w3.org/2000/svg" xmlns:xlink="http://www.w3.org/1999/xlink" style="isolation:isolate" viewBox="0 0 90 20" width="90pt" height="20pt"><defs><clipPath id="_clipPath_YmQUed8XcWTKRR2yvegk8l2S7LFebakt"><rect width="90" height="20"/></clipPath></defs><g clip-path="url(#_clipPath_YmQUed8XcWTKRR2yvegk8l2S7LFebakt)"><g><path d=" M 27.973 3.123 C 27.644 1.893 26.677 0.927 25.447 0.597 C 23.22 0 14.285 0 14.285 0 C 14.285 0 5.35 0 3.123 0.597 C 1.893 0.927 0.927 1.893 0.597 3.123 C 0 5.35 0 10 0 10 C 0 10 0 14.65 0.597 16.877 C 0.927 18.107 1.893 19.073 3.123 19.403 C 5.35 20 14.285 20 14.285 20 C 14.285 20 23.22 20 25.447 19.403 C 26.677 19.073 27.644 18.107 27.973 16.877 C 28.57 14.65 28.57 10 28.57 10 C 28.57 10 28.568 5.35 27.973 3.123 Z " fill="rgb(255,0,0)"/><path d=" M 11.425 14.285 L 18.848 10 L 11.425 5.715 L 11.425 14.285 L 11.425 14.285 Z " fill="rgb(255,255,255)"/></g><g><g><path d=" M 34.602 13.004 L 31.395 1.418 L 34.193 1.418 L 35.317 6.67 C 35.604 7.964 35.814 9.067 35.95 9.979 L 36.032 9.979 C 36.126 9.325 36.338 8.229 36.665 6.689 L 37.829 1.418 L 40.628 1.418 L 37.38 13.004 L 37.38 18.561 L 34.6 18.561 L 34.6 13.004 L 34.602 13.004 L 34.602 13.004 Z " fill="rgb(0,0,0)"/><path d=" M 41.47 18.194 C 40.905 17.813 40.503 17.22 40.263 16.416 C 40.026 15.611 39.906 14.544 39.906 13.208 L 39.906 11.39 C 39.906 10.042 40.042 8.958 40.315 8.142 C 40.588 7.326 41.014 6.729 41.592 6.355 C 42.171 5.981 42.93 5.792 43.871 5.792 C 44.798 5.792 45.538 5.983 46.098 6.364 C 46.656 6.745 47.065 7.342 47.323 8.151 C 47.582 8.963 47.712 10.042 47.712 11.39 L 47.712 13.208 C 47.712 14.544 47.585 15.616 47.333 16.425 C 47.081 17.237 46.672 17.829 46.108 18.203 C 45.543 18.577 44.776 18.765 43.81 18.765 C 42.813 18.768 42.034 18.575 41.47 18.194 Z  M 44.635 16.232 C 44.791 15.823 44.871 15.158 44.871 14.231 L 44.871 10.329 C 44.871 9.431 44.793 8.772 44.635 8.358 C 44.478 7.942 44.203 7.735 43.807 7.735 C 43.427 7.735 43.156 7.942 43.001 8.358 C 42.843 8.775 42.766 9.431 42.766 10.329 L 42.766 14.231 C 42.766 15.158 42.841 15.825 42.991 16.232 C 43.142 16.642 43.412 16.846 43.807 16.846 C 44.203 16.846 44.478 16.642 44.635 16.232 Z " fill="rgb(0,0,0)"/><path d=" M 56.815 18.563 L 54.609 18.563 L 54.365 17.03 L 54.304 17.03 C 53.704 18.187 52.806 18.766 51.606 18.766 C 50.776 18.766 50.162 18.493 49.767 17.95 C 49.372 17.404 49.174 16.553 49.174 15.396 L 49.174 6.038 L 51.994 6.038 L 51.994 15.231 C 51.994 15.791 52.055 16.188 52.178 16.426 C 52.3 16.663 52.505 16.783 52.791 16.783 C 53.036 16.783 53.271 16.708 53.497 16.557 C 53.723 16.407 53.887 16.216 53.998 15.986 L 53.998 6.035 L 56.815 6.035 L 56.815 18.563 L 56.815 18.563 Z " fill="rgb(0,0,0)"/><path d=" M 64.476 3.688 L 61.677 3.688 L 61.677 18.563 L 58.918 18.563 L 58.918 3.688 L 56.119 3.688 L 56.119 1.42 L 64.476 1.42 L 64.476 3.688 L 64.476 3.688 Z " fill="rgb(0,0,0)"/><path d=" M 71.277 18.563 L 69.071 18.563 L 68.826 17.03 L 68.765 17.03 C 68.165 18.187 67.267 18.766 66.068 18.766 C 65.237 18.766 64.624 18.493 64.228 17.95 C 63.833 17.404 63.636 16.553 63.636 15.396 L 63.636 6.038 L 66.456 6.038 L 66.456 15.231 C 66.456 15.791 66.517 16.188 66.639 16.426 C 66.761 16.663 66.966 16.783 67.253 16.783 C 67.497 16.783 67.733 16.708 67.958 16.557 C 68.184 16.407 68.349 16.216 68.459 15.986 L 68.459 6.035 L 71.277 6.035 L 71.277 18.563 L 71.277 18.563 Z " fill="rgb(0,0,0)"/><path d=" M 80.609 8.039 C 80.437 7.248 80.162 6.677 79.781 6.322 C 79.4 5.967 78.876 5.79 78.208 5.79 C 77.69 5.79 77.206 5.936 76.757 6.23 C 76.308 6.524 75.959 6.907 75.715 7.385 L 75.694 7.385 L 75.694 0.786 L 72.977 0.786 L 72.977 18.561 L 75.306 18.561 L 75.593 17.376 L 75.654 17.376 C 75.872 17.799 76.199 18.13 76.634 18.377 C 77.07 18.622 77.554 18.744 78.086 18.744 C 79.038 18.744 79.741 18.305 80.19 17.427 C 80.64 16.548 80.865 15.177 80.865 13.309 L 80.865 11.327 C 80.865 9.927 80.778 8.829 80.609 8.039 Z  M 78.024 13.149 C 78.024 14.062 77.987 14.777 77.911 15.294 C 77.836 15.812 77.712 16.181 77.533 16.397 C 77.356 16.616 77.117 16.724 76.818 16.724 C 76.585 16.724 76.371 16.67 76.173 16.559 C 75.976 16.451 75.816 16.287 75.694 16.07 L 75.694 8.961 C 75.788 8.62 75.952 8.342 76.185 8.123 C 76.416 7.905 76.67 7.796 76.94 7.796 C 77.227 7.796 77.448 7.909 77.603 8.133 C 77.761 8.359 77.869 8.735 77.93 9.266 C 77.991 9.798 78.022 10.553 78.022 11.534 L 78.022 13.149 L 78.024 13.149 L 78.024 13.149 Z " fill="rgb(0,0,0)"/><path d=" M 84.866 13.871 C 84.866 14.676 84.889 15.278 84.936 15.68 C 84.983 16.082 85.082 16.374 85.233 16.559 C 85.383 16.743 85.614 16.835 85.926 16.835 C 86.347 16.835 86.639 16.67 86.794 16.343 C 86.952 16.016 87.037 15.471 87.051 14.709 L 89.482 14.852 C 89.497 14.96 89.504 15.111 89.504 15.301 C 89.504 16.458 89.186 17.324 88.553 17.895 C 87.921 18.467 87.025 18.754 85.868 18.754 C 84.478 18.754 83.504 18.319 82.947 17.446 C 82.387 16.574 82.109 15.226 82.109 13.401 L 82.109 11.214 C 82.109 9.335 82.399 7.961 82.977 7.096 C 83.556 6.23 84.546 5.797 85.95 5.797 C 86.917 5.797 87.66 5.974 88.177 6.329 C 88.695 6.684 89.059 7.234 89.271 7.985 C 89.482 8.735 89.588 9.77 89.588 11.091 L 89.588 13.236 L 84.866 13.236 L 84.866 13.871 L 84.866 13.871 Z  M 85.223 7.968 C 85.08 8.144 84.986 8.434 84.936 8.836 C 84.889 9.238 84.866 9.847 84.866 10.666 L 84.866 11.564 L 86.928 11.564 L 86.928 10.666 C 86.928 9.861 86.9 9.252 86.846 8.836 C 86.792 8.42 86.693 8.128 86.55 7.956 C 86.406 7.787 86.185 7.7 85.886 7.7 C 85.585 7.702 85.364 7.792 85.223 7.968 Z " fill="rgb(0,0,0)"/></g></g></g></svg>